<svg width="28" height="28" viewBox="0 0 28 28" fill="none" xmlns="http://www.w3.org/2000/svg">
<g clip-path="url(#clip0_1_148)">
<path d="M24.9688 0.921875H3.03125C1.86814 0.921875 0.921875 1.86814 0.921875 3.03125V18.6406C0.921875 19.8037 1.86814 20.75 3.03125 20.75H10.9258C11.2713 21.2436 11.4688 21.8308 11.4688 22.4375C11.4688 22.8779 11.365 23.3091 11.1781 23.7031H9.35938C8.19627 23.7031 7.25 24.6494 7.25 25.8125V26.6562C7.25 26.8891 7.43858 27.0781 7.67188 27.0781H20.3281C20.5614 27.0781 20.75 26.8891 20.75 26.6562V25.8125C20.75 24.6494 19.8037 23.7031 18.6406 23.7031H16.8219C16.6346 23.3091 16.5312 22.8775 16.5312 22.4375C16.5312 21.8228 16.7236 21.2465 17.0725 20.75H24.9688C26.1319 20.75 27.0781 19.8037 27.0781 18.6406V3.03125C27.0781 1.86814 26.1319 0.921875 24.9688 0.921875ZM3.03125 1.76562H24.9688C25.6665 1.76562 26.2344 2.33347 26.2344 3.03125V14.8438H25.3906V3.45312C25.3906 2.9878 25.0122 2.60938 24.5469 2.60938H3.45312C2.9878 2.60938 2.60938 2.9878 2.60938 3.45312V14.8438H1.76562V3.03125C1.76562 2.33347 2.33347 1.76562 3.03125 1.76562ZM17.4459 7.25127C17.7986 6.98169 18.2327 6.82812 18.6849 6.82812C19.5557 6.82812 20.337 7.39217 20.6289 8.23212C20.6884 8.40172 20.8479 8.51562 21.0276 8.51562H24.5469V9.35938H21.0225C20.8432 9.35938 20.6838 9.47244 20.6247 9.64119C20.3703 10.3643 19.7405 10.9055 19.019 11.0199C18.4449 11.1118 17.8817 10.9608 17.4433 10.6233C18.3424 10.5879 19.0625 9.84495 19.0625 8.9375C19.0625 8.03089 18.3436 7.28881 17.4459 7.25127ZM24.5469 7.67188H21.3111C20.834 6.65136 19.8134 5.98438 18.6849 5.98438C17.6484 5.98438 16.6827 6.55138 16.1646 7.46347C16.0904 7.59425 16.0912 7.75414 16.1668 7.88408C16.2423 8.01402 16.3815 8.09375 16.5317 8.09375H17.375C17.8403 8.09375 18.2188 8.47217 18.2188 8.9375C18.2188 9.40283 17.8403 9.78125 17.3746 9.78125L16.5308 9.78167C16.3811 9.78167 16.2418 9.86141 16.1668 9.99177C16.0912 10.1217 16.0904 10.282 16.1646 10.4124C16.6933 11.3413 17.6496 11.8906 18.6853 11.8906C18.8393 11.8906 18.995 11.8784 19.1515 11.8539C20.0767 11.7067 20.8939 11.0718 21.3048 10.2035H24.5469V14.8442H3.45312V3.45312H24.5469V7.67188ZM19.9062 25.8125V26.2344H8.09375V25.8125C8.09375 25.1147 8.66159 24.5469 9.35938 24.5469H18.6406C19.3384 24.5469 19.9062 25.1147 19.9062 25.8125ZM15.9124 23.7031H12.0876C12.2311 23.2981 12.3125 22.8716 12.3125 22.4375C12.3125 21.8486 12.1716 21.2714 11.913 20.75H16.087C15.8288 21.2719 15.6875 21.8498 15.6875 22.4375C15.6875 22.8712 15.7693 23.2981 15.9124 23.7031ZM24.9688 19.9062H3.03125C2.33347 19.9062 1.76562 19.3384 1.76562 18.6406V15.6875H26.2344V18.6406C26.2344 19.3384 25.6665 19.9062 24.9688 19.9062Z" fill="white"/>
<path d="M14 16.5312C13.3022 16.5312 12.7344 17.0991 12.7344 17.7969C12.7344 18.4947 13.3022 19.0625 14 19.0625C14.6978 19.0625 15.2656 18.4947 15.2656 17.7969C15.2656 17.0991 14.6978 16.5312 14 16.5312ZM14 18.2188C13.7671 18.2188 13.5781 18.0293 13.5781 17.7969C13.5781 17.5644 13.7671 17.375 14 17.375C14.2329 17.375 14.4219 17.5644 14.4219 17.7969C14.4219 18.0293 14.2329 18.2188 14 18.2188Z" fill="white"/>
<path d="M6.40625 10.2031H6.98928L7.15845 10.5419L6.52986 11.1705C6.36491 11.3354 6.36491 11.6021 6.52986 11.767L7.79548 13.0326C7.96044 13.1976 8.22706 13.1976 8.39202 13.0326L9.02061 12.404L9.35938 12.5732V13.1562C9.35938 13.3891 9.54795 13.5781 9.78125 13.5781H11.4688C11.702 13.5781 11.8906 13.3891 11.8906 13.1562V12.5732L12.2294 12.404L12.858 13.0326C13.0229 13.1976 13.2896 13.1976 13.4545 13.0326L14.7201 11.767C14.8851 11.6021 14.8851 11.3354 14.7201 11.1705L14.0915 10.5419L14.2607 10.2031H14.8438C15.077 10.2031 15.2656 10.0141 15.2656 9.78125V8.09375C15.2656 7.86087 15.077 7.67188 14.8438 7.67188H14.2607L14.0915 7.33311L14.7201 6.70452C14.8851 6.53956 14.8851 6.27294 14.7201 6.10798L13.4545 4.84236C13.2896 4.67741 13.0229 4.67741 12.858 4.84236L12.2294 5.47095L11.8906 5.30178V4.71875C11.8906 4.48588 11.702 4.29688 11.4688 4.29688H9.78125C9.54795 4.29688 9.35938 4.48588 9.35938 4.71875V5.30178L9.02061 5.47095L8.39202 4.84236C8.22706 4.67741 7.96044 4.67741 7.79548 4.84236L6.52986 6.10798C6.36491 6.27294 6.36491 6.53956 6.52986 6.70452L7.15845 7.33311L6.98928 7.67188H6.40625C6.17295 7.67188 5.98438 7.86087 5.98438 8.09375V9.78125C5.98438 10.0141 6.17295 10.2031 6.40625 10.2031ZM6.82812 8.51562H7.25C7.40989 8.51562 7.55586 8.42534 7.62758 8.28233L8.04945 7.43858C8.13045 7.27616 8.09881 7.07998 7.97014 6.95173L7.42466 6.40625L8.09375 5.73716L8.63923 6.28264C8.76833 6.41131 8.9645 6.44253 9.12608 6.36195L9.96983 5.94008C10.1128 5.86836 10.2031 5.72239 10.2031 5.5625V5.14062H11.0469V5.5625C11.0469 5.72239 11.1372 5.86836 11.2802 5.94008L12.1239 6.36195C12.2863 6.44211 12.4821 6.41131 12.6108 6.28264L13.1562 5.73716L13.8253 6.40625L13.2799 6.95173C13.1512 7.07998 13.1195 7.27616 13.2005 7.43858L13.6224 8.28233C13.6941 8.42534 13.8401 8.51562 14 8.51562H14.4219V9.35938H14C13.8401 9.35938 13.6941 9.44966 13.6224 9.59267L13.2005 10.4364C13.1195 10.5988 13.1512 10.795 13.2799 10.9233L13.8253 11.4688L13.1562 12.1378L12.6108 11.5924C12.4821 11.4641 12.2863 11.4333 12.1239 11.513L11.2802 11.9349C11.1372 12.0066 11.0469 12.1526 11.0469 12.3125V12.7344H10.2031V12.3125C10.2031 12.1526 10.1128 12.0066 9.96983 11.9349L9.12608 11.513C8.96366 11.4325 8.76791 11.4633 8.63923 11.5924L8.09375 12.1378L7.42466 11.4688L7.97014 10.9233C8.09881 10.795 8.13045 10.5988 8.04945 10.4364L7.62758 9.59267C7.55586 9.44966 7.40989 9.35938 7.25 9.35938H6.82812V8.51562Z" fill="white"/>
<path d="M10.625 11.0469C11.7881 11.0469 12.7344 10.1006 12.7344 8.9375C12.7344 7.77439 11.7881 6.82812 10.625 6.82812C9.46189 6.82812 8.51562 7.77439 8.51562 8.9375C8.51562 10.1006 9.46189 11.0469 10.625 11.0469ZM10.625 7.67188C11.3228 7.67188 11.8906 8.23972 11.8906 8.9375C11.8906 9.63528 11.3228 10.2031 10.625 10.2031C9.92722 10.2031 9.35938 9.63528 9.35938 8.9375C9.35938 8.23972 9.92722 7.67188 10.625 7.67188Z" fill="white"/>
</g>
<defs>
<clipPath id="clip0_1_148">
<rect width="27" height="27" fill="white" transform="translate(0.5 0.5)"/>
</clipPath>
</defs>
</svg>
