<svg width="35" height="35" viewBox="0 0 35 35" fill="none" xmlns="http://www.w3.org/2000/svg">
<rect x="0.25" y="0.25" width="34.5" height="34.5" rx="7.75" fill="#0E0E0E" fill-opacity="0.5"/>
<rect x="0.25" y="0.25" width="34.5" height="34.5" rx="7.75" stroke="#00B8F1" stroke-width="0.5"/>
<path d="M21.4404 9.64015C21.5724 9.77292 21.7007 9.90959 21.8285 10.0476C21.8526 10.0727 21.8766 10.0978 21.9015 10.1237C22.9746 11.2771 23.531 13.057 23.5782 14.7021C23.5835 14.8159 23.5961 14.9051 23.6221 15.0135C23.6613 14.9895 23.7004 14.9655 23.7408 14.9407C23.7923 14.9093 23.8438 14.8778 23.8954 14.8464C23.9212 14.8305 23.947 14.8147 23.9735 14.7984C23.9985 14.7832 24.0234 14.768 24.0491 14.7524C24.072 14.7384 24.0949 14.7244 24.1185 14.7099C24.2878 14.615 24.4462 14.6121 24.6311 14.6315C24.9686 14.7642 25.0995 15.1197 25.25 15.4592C25.2898 15.5476 25.3298 15.636 25.3698 15.7244C25.39 15.769 25.4101 15.8136 25.4309 15.8595C25.5196 16.0532 25.6124 16.2443 25.7054 16.4354C25.9306 16.9002 26.1441 17.3716 26.3575 17.8435C26.3699 17.8708 26.3822 17.8981 26.3949 17.9262C26.4071 17.9531 26.4193 17.9801 26.4319 18.0079C26.5535 18.2765 26.6771 18.5439 26.8015 18.8109C26.8379 18.8891 26.8742 18.9674 26.9105 19.0456C26.9258 19.0767 26.941 19.1077 26.9568 19.1397C27.0288 19.3313 27.0015 19.5441 26.9432 19.7354C26.7642 20.0335 26.4884 20.1686 26.2122 20.3269C26.1283 20.3755 26.0445 20.424 25.9607 20.4727C25.8984 20.5087 25.8984 20.5087 25.8349 20.5454C25.7248 20.6101 25.6159 20.6768 25.5073 20.7449C25.4759 20.7644 25.4444 20.784 25.412 20.8041C25.3542 20.8402 25.2966 20.8768 25.2393 20.9139C25.0068 21.0577 24.7903 21.1205 24.5306 21.0405C24.3795 20.9369 24.2873 20.8174 24.1826 20.6585C24.162 20.6274 24.1414 20.5962 24.1202 20.5642C24.1038 20.5393 24.0874 20.5144 24.0705 20.4887C23.7169 20.7072 23.369 20.9368 23.0245 21.1733C22.981 21.2031 22.9373 21.2327 22.8936 21.2621C22.8312 21.3041 22.7692 21.347 22.7072 21.3898C22.6711 21.4145 22.635 21.4392 22.5978 21.4646C22.3416 21.6904 22.2877 22.0104 22.2138 22.351C22.2016 22.3996 22.1894 22.4482 22.1768 22.4983C22.1149 22.7608 22.1149 22.7608 22.1756 23.0126C22.2423 23.0997 22.3111 23.1736 22.389 23.2476C22.6722 23.5911 22.8428 23.9089 22.8374 24.3936C22.8076 24.7569 22.6663 25.0281 22.4357 25.2769C22.1911 25.5044 21.9411 25.5615 21.6291 25.5525C21.4821 25.5334 21.3651 25.4814 21.2306 25.4122C21.2174 25.443 21.2043 25.4737 21.1907 25.5054C21.0147 25.897 20.8393 26.1225 20.4711 26.2742C20.1888 26.357 19.8823 26.3352 19.6238 26.1762C19.5042 26.0711 19.3946 25.9577 19.2875 25.8366C19.2739 25.8587 19.2603 25.8807 19.2463 25.9035C19.0632 26.1919 18.8841 26.4029 18.5775 26.5157C18.1992 26.5688 17.8998 26.5267 17.5685 26.3035C17.559 26.3251 17.5494 26.3466 17.5395 26.3688C17.3868 26.6806 17.1578 26.8733 16.8586 26.9826C16.5082 27.0213 16.1801 27.0151 15.8969 26.7528C15.8775 26.7332 15.858 26.7137 15.838 26.6935C15.7882 26.6475 15.7882 26.6475 15.7375 26.6006C15.6317 26.6171 15.552 26.6607 15.4526 26.7094C15.1682 26.8302 14.9032 26.7962 14.6288 26.657C14.3895 26.502 14.2571 26.298 14.1681 26.0064C14.1396 26.0084 14.1111 26.0104 14.0818 26.0124C13.7355 26.0261 13.4961 25.9672 13.2386 25.696C13.0847 25.5071 13.0097 25.335 13.0097 25.0727C12.9804 25.0823 12.9511 25.0919 12.9209 25.1018C12.6817 25.1253 12.4602 25.0457 12.2693 24.879C12.088 24.6832 11.9922 24.4309 11.9284 24.1601C11.9252 23.9613 11.9595 23.7796 12.0008 23.5871C11.9723 23.5693 11.9723 23.5693 11.9432 23.5511C11.6586 23.3628 11.4738 23.1547 11.3832 22.7883C11.3238 22.4772 11.3927 22.2121 11.515 21.9318C11.5843 21.8316 11.6527 21.7597 11.7392 21.6772C11.6419 21.6416 11.5446 21.6062 11.4472 21.571C11.4059 21.5559 11.4059 21.5559 11.3637 21.5404C11.2484 21.4989 11.1508 21.4649 11.0292 21.4649C11.0092 21.5105 10.9891 21.556 10.9685 21.6029C10.8865 21.7638 10.8042 21.8474 10.6555 21.9318C10.2805 22.0383 9.93133 21.8303 9.58513 21.6748C9.54878 21.6586 9.51243 21.6423 9.47497 21.6255C9.39879 21.5913 9.32265 21.557 9.24653 21.5226C9.13029 21.4702 9.01378 21.4186 8.89726 21.367C8.82292 21.3335 8.7486 21.2999 8.67429 21.2663C8.63965 21.2511 8.605 21.2359 8.56931 21.2202C8.3343 21.1125 8.1848 20.9974 8.04678 20.7487C7.95819 20.4839 8.0068 20.2629 8.09801 20.0091C8.10811 19.9798 8.1182 19.9505 8.1286 19.9204C8.15008 19.8582 8.17174 19.7961 8.19357 19.734C8.22576 19.6423 8.25727 19.5503 8.28852 19.4581C8.35532 19.2611 8.42285 19.0645 8.49052 18.8679C8.5029 18.8319 8.51528 18.796 8.52804 18.7589C8.59624 18.5609 8.66455 18.3629 8.73292 18.1649C8.79753 17.9779 8.86201 17.7907 8.92643 17.6036C9.01483 17.3468 9.10352 17.0902 9.19241 16.8337C9.22725 16.733 9.26201 16.6323 9.29667 16.5315C9.34553 16.3895 9.39471 16.2477 9.44398 16.1059C9.45848 16.0636 9.47297 16.0212 9.48791 15.9775C9.59106 15.6824 9.69439 15.3931 9.94553 15.2257C10.2645 15.1021 10.5491 15.2626 10.8414 15.4022C10.9591 15.4578 11.0782 15.5086 11.1973 15.56C11.2659 15.59 11.3344 15.62 11.4029 15.6501C11.4025 15.6237 11.4021 15.5973 11.4017 15.5701C11.3743 13.4271 11.8664 11.5725 13.1965 10.0051C13.2213 9.97482 13.246 9.94451 13.2715 9.91328C15.3818 7.39607 19.1901 7.42266 21.4404 9.64015ZM16.1252 9.37643C15.2541 10.4282 14.8664 11.9204 14.6772 13.3131C14.6709 13.3583 14.6647 13.4034 14.6582 13.45C14.6112 13.825 14.6165 14.158 14.6165 14.5466C15.4674 14.5466 16.3182 14.5466 17.1949 14.5466C17.1949 12.6137 17.1949 10.6808 17.1949 8.68938C16.7814 8.68938 16.4117 9.0748 16.1252 9.37643ZM17.7928 8.68938C17.7928 10.6223 17.7928 12.5552 17.7928 14.5466C18.6436 14.5466 19.4945 14.5466 20.3711 14.5466C20.3711 14.1163 20.3685 13.7312 20.3104 13.3131C20.3038 13.2643 20.2971 13.2154 20.2903 13.1651C20.0996 11.8294 19.7119 10.4831 18.9138 9.45336C18.8922 9.42409 18.8705 9.39482 18.8482 9.36466C18.7163 9.19897 18.5582 9.07569 18.3953 8.952C18.3742 8.93562 18.3531 8.91924 18.3313 8.90237C18.1444 8.76634 18.0291 8.74902 17.7928 8.68938ZM19.4743 9.07137C19.5334 9.21919 19.6117 9.3413 19.6962 9.47193C20.0885 10.103 20.3592 10.7973 20.558 11.5331C20.5667 11.5646 20.5755 11.5962 20.5845 11.6286C20.8459 12.5797 20.9262 13.5587 21.0064 14.5466C21.6476 14.5466 22.2888 14.5466 22.9495 14.5466C22.9169 14.0168 22.9169 14.0168 22.8351 13.5014C22.827 13.462 22.8189 13.4225 22.8106 13.3818C22.5761 12.2967 22.0912 11.364 21.4174 10.5569C21.4009 10.5368 21.3844 10.5166 21.3674 10.4959C20.8491 9.86669 20.1955 9.35297 19.4743 9.07137ZM15.476 9.07137C14.8054 9.40664 14.2437 9.80517 13.7197 10.3871C13.6852 10.4237 13.6507 10.4602 13.6152 10.4979C12.7062 11.4837 12.1579 12.8781 12.0381 14.2919C12.0381 14.376 12.0381 14.46 12.0381 14.5466C12.6794 14.5466 13.3206 14.5466 13.9812 14.5466C14.0021 14.3085 14.0229 14.0704 14.0443 13.8251C14.1028 13.1929 14.18 12.5747 14.3176 11.9575C14.3283 11.9085 14.3283 11.9085 14.3393 11.8584C14.5428 10.95 14.8909 10.0268 15.4142 9.29718C15.4868 9.20156 15.4868 9.20156 15.476 9.07137ZM21.0064 15.2257C20.9887 15.4244 20.9709 15.6231 20.9527 15.8279C20.9472 15.8893 20.9416 15.9508 20.936 16.0141C20.9054 16.3594 20.8787 16.7047 20.8569 17.0508C21.4118 17.2189 21.8788 17.1205 22.389 16.8386C22.3695 16.7213 22.3476 16.6125 22.3143 16.499C22.3079 16.4241 22.3043 16.3488 22.3026 16.2735C22.3005 16.2147 22.3005 16.2147 22.2983 16.1547C22.3198 15.9896 22.3702 15.9057 22.4637 15.7775C22.568 15.6984 22.673 15.6304 22.7841 15.5648C22.857 15.5207 22.857 15.5207 22.9495 15.4379C22.9495 15.3679 22.9495 15.2979 22.9495 15.2257C22.3083 15.2257 21.667 15.2257 21.0064 15.2257ZM12.0381 15.2682C12.0578 15.6322 12.0578 15.6322 12.1129 15.9897C12.1778 16.0513 12.1778 16.0513 12.2577 16.0985C12.4549 16.2245 12.4549 16.2245 12.5239 16.3292C12.5436 16.4593 12.5522 16.5877 12.5607 16.7192C12.5891 16.8517 12.5891 16.8517 12.7118 16.9025C12.8653 16.9713 13.0221 17.0267 13.18 17.0805C13.2243 17.0957 13.2243 17.0957 13.2694 17.1113C13.3626 17.1435 13.4559 17.1754 13.5492 17.2073C13.6128 17.2292 13.6764 17.2511 13.74 17.273C13.8951 17.3265 14.0503 17.3797 14.2055 17.4328C14.1779 17.1408 14.1779 17.1408 14.1425 16.8498C14.1379 16.8149 14.1333 16.7799 14.1286 16.7439C14.1194 16.6746 14.11 16.6053 14.1006 16.536C14.0455 16.1139 14.017 15.6951 13.9812 15.2682C13.34 15.2682 12.6988 15.2682 12.0381 15.2682ZM14.6165 15.2682C14.6153 15.82 14.6153 15.82 14.6632 16.3611C14.6683 16.4001 14.6733 16.4391 14.6786 16.4793C14.6946 16.5992 14.7116 16.7189 14.7286 16.8386C14.7338 16.8777 14.739 16.9168 14.7444 16.9571C14.7596 17.0691 14.7765 17.1806 14.794 17.2922C14.7985 17.326 14.803 17.3597 14.8076 17.3945C14.8233 17.5015 14.8233 17.5015 14.8781 17.645C15.0008 17.7322 15.085 17.7721 15.23 17.7727C15.3779 17.7071 15.5047 17.611 15.6371 17.5124C15.7002 17.4662 15.7633 17.4202 15.8264 17.3741C15.8601 17.3494 15.8938 17.3247 15.9285 17.2993C16.1223 17.158 16.3176 17.0196 16.5129 16.881C16.5507 16.8541 16.5885 16.8272 16.6274 16.7994C16.6814 16.761 16.6814 16.761 16.7365 16.7219C16.7682 16.6993 16.7999 16.6768 16.8325 16.6535C16.9519 16.571 17.0736 16.4929 17.1949 16.4141C17.1949 16.036 17.1949 15.6578 17.1949 15.2682C16.344 15.2682 15.4931 15.2682 14.6165 15.2682ZM17.7928 15.2682C17.7928 15.6463 17.7928 16.0245 17.7928 16.4141C18.0266 16.4662 18.2605 16.5183 18.4943 16.5703C18.5736 16.588 18.6529 16.6057 18.7322 16.6233C18.992 16.6812 19.2518 16.7389 19.5117 16.7961C19.5433 16.8031 19.5749 16.8101 19.6074 16.8172C19.6915 16.8357 19.7756 16.854 19.8597 16.8722C19.9058 16.8823 19.9519 16.8923 19.9993 16.9026C20.1094 16.9269 20.1094 16.9269 20.2217 16.9235C20.2751 16.6955 20.3146 16.4733 20.3384 16.2391C20.3433 16.1972 20.3433 16.1972 20.3482 16.1545C20.3795 15.8548 20.3711 15.5765 20.3711 15.2682C19.5203 15.2682 18.6694 15.2682 17.7928 15.2682ZM24.1739 15.4618C24.1154 15.4966 24.1154 15.4966 24.0558 15.5321C23.9937 15.5695 23.9937 15.5695 23.9304 15.6077C23.8885 15.6327 23.8466 15.6578 23.8034 15.6836C23.6805 15.757 23.5579 15.8309 23.4353 15.9048C23.4027 15.9244 23.3701 15.9441 23.3365 15.9643C23.1824 16.0571 23.0284 16.1504 22.8748 16.2444C22.9275 16.4427 23.0005 16.6206 23.0869 16.8023C23.1004 16.8311 23.1139 16.8598 23.1278 16.8895C23.1717 16.9832 23.2159 17.0767 23.2601 17.1702C23.3216 17.301 23.3831 17.432 23.4445 17.5629C23.4598 17.5955 23.475 17.628 23.4908 17.6615C23.6221 17.9414 23.7509 18.2227 23.879 18.5045C24.0499 18.8798 24.2253 19.2519 24.4052 19.6217C24.5234 19.8653 24.6352 20.1117 24.7432 20.3614C24.9034 20.3051 25.048 20.235 25.1968 20.1472C25.2399 20.1218 25.283 20.0964 25.3275 20.0703C25.3608 20.0504 25.3608 20.0504 25.3948 20.0302C25.4617 19.9905 25.5287 19.9511 25.5958 19.9118C25.8526 19.7599 26.1039 19.6011 26.35 19.4276C26.1439 18.9575 25.9354 18.4888 25.7241 18.0217C25.7095 17.9894 25.6949 17.9571 25.6798 17.9238C25.4872 17.4983 25.2914 17.0754 25.0878 16.6565C24.8788 16.2261 24.6803 15.7896 24.4816 15.353C24.349 15.353 24.2907 15.3919 24.1739 15.4618ZM10.2071 15.9048C10.1076 16.1247 10.0189 16.3439 9.94115 16.5746C9.93031 16.6063 9.91947 16.6381 9.9083 16.6707C9.87231 16.7761 9.83652 16.8816 9.80073 16.9871C9.74796 17.142 9.69509 17.2969 9.64221 17.4517C9.62808 17.4931 9.61396 17.5345 9.59941 17.5771C9.48942 17.899 9.37807 18.2203 9.26622 18.5413C9.2377 18.6232 9.20921 18.7051 9.18072 18.787C9.17135 18.8139 9.16199 18.8409 9.15234 18.8686C9.13347 18.9228 9.11461 18.9771 9.09574 19.0313C9.0489 19.166 9.00198 19.3006 8.95492 19.4352C8.9019 19.5867 8.84918 19.7385 8.79647 19.8902C8.78038 19.936 8.7643 19.9818 8.74772 20.029C8.7259 20.0921 8.7259 20.0921 8.70363 20.1564C8.68443 20.2114 8.68443 20.2114 8.66484 20.2676C8.63182 20.3651 8.63182 20.3651 8.63766 20.4887C8.86298 20.591 9.0884 20.6929 9.3139 20.7947C9.39058 20.8293 9.46724 20.864 9.54387 20.8988C9.6541 20.9488 9.76441 20.9986 9.87473 21.0483C9.92601 21.0716 9.92601 21.0716 9.97832 21.0955C10.0266 21.1171 10.0266 21.1171 10.0758 21.1392C10.1039 21.1519 10.132 21.1647 10.161 21.1778C10.2503 21.2126 10.3384 21.2339 10.4313 21.2527C10.8223 20.1333 11.2119 19.0132 11.5976 17.8914C11.611 17.8522 11.6245 17.8131 11.6383 17.7728C11.6631 17.7008 11.6878 17.6288 11.7126 17.5567C11.7238 17.5242 11.7349 17.4916 11.7465 17.4581C11.7627 17.4106 11.7627 17.4106 11.7793 17.3621C11.8041 17.2911 11.8296 17.2204 11.8556 17.15C11.8694 17.1126 11.8831 17.0751 11.8972 17.0366C11.9098 17.0028 11.9225 16.9689 11.9355 16.934C11.9712 16.8285 11.9712 16.8285 11.9634 16.6688C11.9324 16.6547 11.9013 16.6406 11.8694 16.6261C11.2901 16.3629 11.2901 16.3629 11.2163 16.3294C11.1669 16.3069 11.1175 16.2845 11.0681 16.2621C10.9394 16.2038 10.811 16.1451 10.6827 16.0857C10.657 16.0739 10.6313 16.0621 10.6048 16.0499C10.5556 16.0272 10.5065 16.0045 10.4574 15.9816C10.3361 15.9235 10.3361 15.9235 10.2071 15.9048ZM17.022 17.3081C16.9606 17.3547 16.8992 17.4012 16.8377 17.4477C16.8052 17.4727 16.7727 17.4976 16.7392 17.5234C16.549 17.6671 16.3543 17.8027 16.1603 17.9395C16.0515 18.0165 15.9428 18.0937 15.8344 18.1714C15.7734 18.2141 15.7115 18.2554 15.6487 18.2946C15.6223 18.3114 15.5959 18.3282 15.5686 18.3455C15.546 18.359 15.5234 18.3726 15.5001 18.3865C15.313 18.584 15.2796 18.9437 15.2256 19.2139C15.2167 19.2578 15.2077 19.3016 15.1985 19.3468C15.1701 19.486 15.142 19.6253 15.114 19.7645C15.0947 19.8593 15.0754 19.954 15.0561 20.0488C15.0089 20.2803 14.9621 20.5118 14.9154 20.7434C15.1678 20.7508 15.1678 20.7508 15.4036 20.6585C15.447 20.6349 15.447 20.6349 15.4913 20.6108C15.8044 20.3532 15.914 20.0427 16.0248 19.6319C16.0518 19.5339 16.0792 19.436 16.107 19.3383C16.1186 19.2953 16.1303 19.2524 16.1423 19.2081C16.234 18.956 16.3688 18.8289 16.5803 18.7163C16.8495 18.6062 17.1314 18.5479 17.4115 18.4844C17.5222 18.4593 17.6327 18.4333 17.7433 18.4071C17.8141 18.3906 17.8849 18.3741 17.9557 18.3578C17.9885 18.3501 18.0213 18.3424 18.0551 18.3345C18.2184 18.2977 18.3728 18.2657 18.5401 18.2817C18.6289 18.3506 18.6289 18.3506 18.6896 18.4514C18.7075 18.5911 18.7069 18.6709 18.646 18.7948C18.5558 18.9016 18.4885 18.9138 18.3613 18.9422C18.2961 18.9573 18.2961 18.9573 18.2296 18.9727C18.1834 18.9828 18.1371 18.9928 18.0894 19.0032C17.9943 19.0252 17.8992 19.0472 17.8041 19.0692C17.7132 19.0897 17.6222 19.1101 17.5312 19.1305C17.401 19.1599 17.271 19.1899 17.1412 19.2207C17.1147 19.2264 17.0883 19.2321 17.0611 19.238C16.894 19.2777 16.7851 19.3235 16.6717 19.4701C16.6179 19.6168 16.5822 19.7678 16.5456 19.921C16.4559 20.2658 16.3707 20.5623 16.1486 20.8283C16.126 20.8557 16.1034 20.8832 16.0801 20.9115C15.7837 21.2366 15.419 21.3846 15.0135 21.3933C14.9655 21.3949 14.9174 21.3965 14.8679 21.3981C14.6769 21.3733 14.5623 21.2851 14.4367 21.1227C14.3042 20.8773 14.3434 20.6092 14.3967 20.3423C14.4156 20.255 14.4348 20.1678 14.4543 20.0807C14.4644 20.0344 14.4744 19.9881 14.4848 19.9403C14.5167 19.7932 14.549 19.6462 14.5815 19.4993C14.614 19.3515 14.6465 19.2038 14.6786 19.0559C14.6985 18.9641 14.7187 18.8724 14.7392 18.7807C14.7527 18.7186 14.7527 18.7186 14.7664 18.6553C14.7745 18.6189 14.7825 18.5825 14.7908 18.545C14.8107 18.4443 14.8107 18.4443 14.766 18.3241C14.6721 18.2739 14.6721 18.2739 14.5543 18.2356C14.509 18.2195 14.4637 18.2033 14.4171 18.1867C14.3673 18.1696 14.3175 18.1524 14.2676 18.1353C14.2168 18.1174 14.1661 18.0995 14.1153 18.0816C14.0087 18.044 13.9021 18.0069 13.7954 17.97C13.6586 17.9226 13.522 17.8747 13.3854 17.8265C13.2805 17.7895 13.1755 17.7528 13.0705 17.7161C13.0202 17.6985 12.9698 17.6808 12.9194 17.6631C12.8489 17.6385 12.7784 17.6141 12.7079 17.5897C12.6678 17.5757 12.6276 17.5618 12.5863 17.5474C12.4857 17.5123 12.4857 17.5123 12.3744 17.5177C12.3617 17.5538 12.349 17.5899 12.3359 17.6271C12.3075 17.7077 12.2791 17.7884 12.2507 17.869C12.1939 18.0302 12.1372 18.1914 12.0805 18.3527C11.9626 18.6881 11.8443 19.0233 11.7246 19.358C11.6689 19.5138 11.6134 19.6698 11.5579 19.8257C11.5308 19.9017 11.5036 19.9777 11.4763 20.0536C11.438 20.1601 11.4 20.2668 11.3621 20.3735C11.3505 20.4055 11.3389 20.4375 11.327 20.4704C11.3002 20.5463 11.2765 20.6235 11.2534 20.701C11.285 20.7963 11.285 20.7963 11.3805 20.8266C11.51 20.8721 11.6396 20.917 11.7695 20.9609C11.8137 20.9767 11.8579 20.9925 11.9035 21.0088C12.1588 21.0957 12.3827 21.1423 12.6495 21.1268C12.9369 21.1228 13.1565 21.25 13.3602 21.4726C13.4586 21.5981 13.5258 21.72 13.54 21.8899C13.5504 21.9915 13.5603 22.0563 13.6076 22.144C13.7168 22.2019 13.8258 22.236 13.942 22.2724C14.1636 22.3529 14.2961 22.5053 14.404 22.7356C14.4523 22.8536 14.4713 22.9378 14.4904 23.0698C14.5275 23.21 14.5275 23.21 14.6188 23.2429C14.6843 23.2624 14.7499 23.2811 14.8157 23.2991C15.0475 23.3766 15.2021 23.543 15.3241 23.7755C15.3976 23.9406 15.4283 24.0823 15.4386 24.2662C15.4871 24.275 15.5357 24.2837 15.5857 24.2928C15.8407 24.3576 16.0361 24.5029 16.2023 24.7305C16.3471 25.0528 16.3815 25.356 16.284 25.6987C16.2459 25.8203 16.2008 25.9343 16.1486 26.0489C16.2723 26.1964 16.3773 26.3213 16.5643 26.3274C16.756 26.2958 16.8422 26.2323 16.9823 26.086C17.0682 25.9199 17.0824 25.7702 17.0454 25.582C16.946 25.3897 16.8232 25.2244 16.6951 25.0567C16.6587 25.0082 16.6223 24.9596 16.586 24.911C16.5268 24.8317 16.4676 24.7524 16.4083 24.6733C16.3159 24.5434 16.2651 24.4648 16.2397 24.2981C16.2643 24.1614 16.2766 24.1003 16.3728 24.0116C16.5731 23.9785 16.5731 23.9785 16.6717 24.0116C16.8134 24.1542 16.9335 24.319 17.0547 24.4838C17.0726 24.5079 17.0905 24.532 17.1089 24.5569C17.2203 24.7076 17.3305 24.8593 17.4401 25.0116C17.4669 25.0488 17.4937 25.0861 17.5213 25.1244C17.5657 25.1864 17.6102 25.2484 17.6543 25.3107C17.7041 25.381 17.7543 25.451 17.8044 25.521C17.8343 25.563 17.8643 25.6051 17.8951 25.6485C18.0205 25.8018 18.0908 25.8324 18.2739 25.8526C18.4368 25.8467 18.5299 25.7929 18.6522 25.6669C18.7267 25.5194 18.7635 25.4152 18.7667 25.2451C18.7093 25.0572 18.6143 24.9273 18.5027 24.7756C18.4573 24.7137 18.4573 24.7137 18.4109 24.6505C18.2868 24.4827 18.1614 24.3162 18.0359 24.1498C17.9165 23.9914 17.7982 23.8321 17.6807 23.672C17.6584 23.6427 17.6362 23.6135 17.6134 23.5833C17.5238 23.4569 17.4815 23.3545 17.4728 23.1945C17.4938 23.0354 17.4938 23.0354 17.5545 22.9505C17.6702 22.8952 17.7429 22.8878 17.8675 22.908C18.0065 23.0192 18.1084 23.1441 18.2131 23.2953C18.3247 23.4536 18.4384 23.6072 18.5588 23.7569C18.7024 23.936 18.8376 24.1211 18.9717 24.3093C19.0937 24.4782 19.2192 24.6435 19.345 24.8087C19.4934 25.0042 19.6357 25.2041 19.7756 25.4076C19.891 25.5503 19.9712 25.5781 20.1399 25.6032C20.3059 25.5997 20.3902 25.5171 20.5076 25.3913C20.6118 25.259 20.613 25.134 20.6096 24.9626C20.583 24.7724 20.4816 24.6612 20.3711 24.5209C20.3353 24.4737 20.2995 24.4263 20.2638 24.379C20.1809 24.2692 20.0975 24.16 20.0137 24.0512C19.8945 23.8964 19.7764 23.7407 19.6588 23.5845C19.6219 23.5355 19.585 23.4865 19.5482 23.4376C19.5299 23.4134 19.5117 23.3891 19.4929 23.3642C19.4357 23.2884 19.3784 23.2128 19.321 23.1372C18.5823 22.1627 18.5823 22.1627 18.5658 21.953C18.5775 21.8045 18.5775 21.8045 18.6219 21.7249C18.7117 21.6615 18.77 21.6403 18.8764 21.6347C19.0486 21.7145 19.1432 21.8015 19.2548 21.969C19.3828 22.1541 19.515 22.3301 19.6565 22.5022C19.6753 22.5252 19.6942 22.5482 19.7137 22.5719C19.7519 22.6184 19.7902 22.6649 19.8284 22.7114C19.9203 22.8233 20.0115 22.9359 20.1025 23.0486C20.1197 23.0699 20.1369 23.0912 20.1546 23.1131C20.2676 23.2534 20.3783 23.3957 20.4879 23.5394C20.5784 23.6558 20.6709 23.77 20.7635 23.8842C21.1561 24.3689 21.1561 24.3689 21.2801 24.5512C21.3863 24.7069 21.4761 24.7978 21.6416 24.8604C21.802 24.869 21.9119 24.8385 22.048 24.7411C22.1893 24.5759 22.2103 24.4646 22.2194 24.2321C22.1702 23.966 21.9577 23.7605 21.7981 23.5712C21.7509 23.5145 21.7038 23.4578 21.6567 23.4011C21.6344 23.3743 21.6121 23.3476 21.5892 23.32C21.5008 23.2127 21.416 23.1023 21.3316 22.9909C21.2495 22.884 21.1653 22.7794 21.0811 22.6746C20.9748 22.5422 20.8692 22.4094 20.7658 22.274C20.6552 22.1293 20.5415 21.9879 20.4272 21.8469C20.2889 21.6763 20.1513 21.5052 20.0188 21.3288C19.9788 21.277 19.9372 21.2267 19.8944 21.1779C19.7839 21.048 19.7214 20.9601 19.7149 20.7752C19.7359 20.6161 19.7359 20.6161 19.7732 20.5312C19.9008 20.4587 20.0117 20.4461 20.1469 20.4887C20.2631 20.5858 20.3528 20.7037 20.4459 20.8283C20.4665 20.8548 20.4871 20.8812 20.5083 20.9085C20.5504 20.9627 20.5922 21.0172 20.6337 21.072C20.7236 21.1888 20.8158 21.3031 20.9083 21.4172C21.0673 21.6134 21.2248 21.811 21.3811 22.0101C21.4534 22.0998 21.5279 22.186 21.6043 22.2714C21.6178 22.2176 21.6314 22.1638 21.6454 22.1084C21.8736 21.2301 22.2051 20.9155 22.8888 20.4675C22.96 20.4206 23.0313 20.3735 23.1025 20.3265C23.1486 20.2961 23.1947 20.2657 23.2408 20.2354C23.4313 20.1098 23.6205 19.9817 23.809 19.8521C23.7494 19.6116 23.6473 19.4079 23.5404 19.1915C23.3467 18.7944 23.1606 18.3934 22.9775 17.9899C22.9586 17.9481 22.9586 17.9481 22.9393 17.9056C22.8678 17.7481 22.7965 17.5905 22.7253 17.4328C22.6905 17.4502 22.6558 17.4677 22.62 17.4857C22.5733 17.5089 22.5266 17.532 22.4799 17.5551C22.4571 17.5666 22.4344 17.5781 22.4109 17.5899C21.7185 17.9316 21.0464 17.8171 20.333 17.6569C20.2585 17.6407 20.184 17.6245 20.1094 17.6084C19.9147 17.5662 19.72 17.5234 19.5255 17.4803C19.2135 17.4113 18.9014 17.3429 18.5892 17.2752C18.4809 17.2516 18.3727 17.2274 18.2644 17.2032C18.1975 17.1886 18.1306 17.174 18.0637 17.1595C18.0341 17.1527 18.0046 17.146 17.9741 17.139C17.5999 17.0588 17.3384 17.0548 17.022 17.3081ZM12.0008 22.3987C11.9727 22.5473 11.9727 22.5473 12.0008 22.6958C12.0859 22.8229 12.1504 22.8911 12.281 22.9505C12.508 22.9505 12.6816 22.712 12.834 22.5404C12.9314 22.4238 13.0017 22.3344 13.0097 22.1706C12.9647 21.9854 12.9254 21.9127 12.7855 21.8045C12.4525 21.7007 12.1771 22.1195 12.0008 22.3987ZM13.1592 23.1627C13.1117 23.2156 13.0643 23.2684 13.0168 23.3212C12.9157 23.4345 12.8146 23.5479 12.7144 23.6622C12.693 23.6866 12.6716 23.7109 12.6496 23.736C12.5698 23.8352 12.5609 23.8878 12.5473 24.0248C12.5503 24.1851 12.5503 24.1851 12.6383 24.306C12.7436 24.4018 12.7436 24.4018 12.8719 24.4254C13.0745 24.3786 13.1653 24.2605 13.3086 24.0965C13.356 24.0436 13.4035 23.9907 13.4509 23.9379C13.5521 23.8247 13.6531 23.7112 13.7534 23.5969C13.7748 23.5726 13.7962 23.5482 13.8182 23.5232C13.898 23.4239 13.9069 23.3714 13.9205 23.2343C13.9175 23.074 13.9175 23.074 13.8294 22.9531C13.7242 22.8574 13.7242 22.8574 13.5959 22.8337C13.3933 22.8805 13.3025 22.9987 13.1592 23.1627ZM13.9345 24.3405C13.9077 24.3698 13.8808 24.3992 13.8531 24.4294C13.6963 24.6068 13.6018 24.7357 13.5702 24.9878C13.6171 25.1256 13.6681 25.187 13.7687 25.2796C13.8973 25.3407 13.9593 25.3249 14.0933 25.2849C14.2294 25.1729 14.3424 25.0335 14.46 24.8976C14.5088 24.8439 14.5088 24.8439 14.5586 24.7891C14.7498 24.5822 14.7498 24.5822 14.8484 24.3126C14.8374 24.1249 14.7743 24.0516 14.6539 23.9267C14.3619 23.7821 14.1224 24.1263 13.9345 24.3405ZM14.766 25.5395C14.7238 25.6718 14.726 25.7011 14.7706 25.8393C14.8479 25.9768 14.8944 26.0315 15.0275 26.0913C15.2165 26.0865 15.3027 26.015 15.429 25.8682C15.4484 25.8447 15.4677 25.8211 15.4876 25.7969C15.5077 25.7735 15.5278 25.7501 15.5484 25.726C15.7001 25.5477 15.7001 25.5477 15.7515 25.3141C15.7485 25.1537 15.7485 25.1537 15.6605 25.0329C15.5552 24.9371 15.5552 24.9371 15.4269 24.9135C15.1522 24.977 14.92 25.2799 14.766 25.5395Z" fill="white"/>
</svg>
